<svg width="51" height="51" viewBox="0 0 51 51" fill="none" xmlns="http://www.w3.org/2000/svg">
<path d="M46.75 19.125V14.875C46.75 12.5278 44.8473 10.625 42.5 10.625H8.5C6.15279 10.625 4.25 12.5278 4.25 14.875V36.125C4.25 38.4723 6.15279 40.375 8.5 40.375H25.5M46.75 19.125H12.75M46.75 19.125V23.375" stroke="white" stroke-width="2.5" stroke-linecap="round" stroke-linejoin="round"/>
<path d="M40.3587 30.0156L45.7889 31.3947C46.3542 31.5384 46.7528 32.052 46.7354 32.6349C46.3705 44.8712 39.3125 46.75 39.3125 46.75C39.3125 46.75 32.2546 44.8712 31.8897 32.6349C31.8723 32.052 32.2709 31.5384 32.8362 31.3947L38.2664 30.0156C38.953 29.8413 39.6721 29.8413 40.3587 30.0156Z" stroke="white" stroke-width="2.5" stroke-linecap="round" stroke-linejoin="round"/>
</svg>
