<svg width="51" height="51" viewBox="0 0 51 51" fill="none" xmlns="http://www.w3.org/2000/svg">
<path d="M17 40.375C19.3472 40.375 21.25 38.4723 21.25 36.125C21.25 33.7777 19.3472 31.875 17 31.875C14.6528 31.875 12.75 33.7777 12.75 36.125C12.75 38.4723 14.6528 40.375 17 40.375Z" stroke="white" stroke-width="2.5" stroke-miterlimit="1.5" stroke-linecap="round" stroke-linejoin="round"/>
<path d="M38.25 40.375C40.5973 40.375 42.5 38.4723 42.5 36.125C42.5 33.7777 40.5973 31.875 38.25 31.875C35.9027 31.875 34 33.7777 34 36.125C34 38.4723 35.9027 40.375 38.25 40.375Z" stroke="white" stroke-width="2.5" stroke-miterlimit="1.5" stroke-linecap="round" stroke-linejoin="round"/>
<path d="M21.3563 36.125H31.875V14.025C31.875 13.3208 31.3042 12.75 30.6 12.75H2.125" stroke="white" stroke-width="2.5" stroke-linecap="round"/>
<path d="M12.0063 36.125H7.65C6.94584 36.125 6.375 35.5542 6.375 34.85V24.4375" stroke="white" stroke-width="2.5" stroke-linecap="round"/>
<path d="M4.25 19.125H12.75" stroke="white" stroke-width="2.5" stroke-linecap="round" stroke-linejoin="round"/>
<path d="M31.875 19.125H43.7965C44.3003 19.125 44.757 19.4217 44.9616 19.8822L48.7651 28.4402C48.8376 28.6034 48.875 28.7797 48.875 28.958V34.85C48.875 35.5542 48.3042 36.125 47.6 36.125H43.5625" stroke="white" stroke-width="2.5" stroke-linecap="round"/>
<path d="M31.875 36.125H34" stroke="white" stroke-width="2.5" stroke-linecap="round"/>
</svg>
