<svg width="51" height="51" viewBox="0 0 51 51" fill="none" xmlns="http://www.w3.org/2000/svg">
<path d="M35.0039 42.5H8.7125C8.00834 42.5 7.4375 41.9292 7.4375 41.225V20.4C7.4375 19.6958 8.00834 19.125 8.7125 19.125H14.5937C16.0866 19.125 17.47 18.3417 18.238 17.0616L23.9976 7.46216C25.2405 5.39086 28.1677 5.19396 29.6767 7.08019C30.3879 7.96927 30.6172 9.15099 30.29 10.2416L28.1174 17.4836C27.8719 18.3017 28.4846 19.125 29.3386 19.125H39.0607C41.8629 19.125 43.8983 21.7897 43.1609 24.4932L39.104 39.3682C38.5998 41.2173 36.9204 42.5 35.0039 42.5Z" stroke="white" stroke-width="2.5" stroke-linecap="round"/>
<path d="M14.875 42.5V19.125" stroke="white" stroke-width="2.5" stroke-linecap="round" stroke-linejoin="round"/>
</svg>
